<svg xmlns="http://www.w3.org/2000/svg" width="429.0000396728516" height="57.69634313282599" viewBox="0 0 385.15789473684214 51.800000000000004" class="looka-1j8o68f"><defs id="SvgjsDefs1213"><linearGradient id="SvgjsLinearGradient1220"><stop id="SvgjsStop1221" stop-color="#905e26" offset="0"></stop><stop id="SvgjsStop1222" stop-color="#f5ec9b" offset="0.5"></stop><stop id="SvgjsStop1223" stop-color="#905e26" offset="1"></stop></linearGradient><linearGradient id="SvgjsLinearGradient1224"><stop id="SvgjsStop1225" stop-color="#905e26" offset="0"></stop><stop id="SvgjsStop1226" stop-color="#f5ec9b" offset="0.5"></stop><stop id="SvgjsStop1227" stop-color="#905e26" offset="1"></stop></linearGradient></defs><g id="SvgjsG1216" featurekey="nameFeature-0" transform="matrix(0.7384129507133701,0,0,0.7384129507133701,69.78476149996263,7.192720540468789)" fill="url(#SvgjsLinearGradient1224)"><path d="M21.4 37.32 c-0.44 -0.08 -0.96 -0.2 -1.32 -0.44 c-0.8 -0.56 -1.48 -1.36 -2 -2.2 c-0.48 -0.76 -0.6 -1.68 -0.68 -2.56 c-0.08 -1.16 -0.08 -2.28 -0.08 -3.44 l0 -1.16 l-8.68 0 c0 1 -0.04 2 0 3.04 c0 0.6 0.08 1.2 0.08 1.8 c0 0.72 -0.2 1 -0.92 1.08 c-1 0.16 -1.96 0.24 -2.96 0.32 s-1.44 -0.24 -1.56 -1.24 c-0.08 -0.84 -0.16 -1.68 -0.12 -2.48 c0.28 -4.4 0.04 -8.8 -0.12 -13.2 c-0.04 -1.08 -0.04 -2.16 -0.04 -3.2 c0.04 -0.88 0.32 -1.16 1.2 -1.24 c0.92 -0.04 1.88 -0.12 2.8 -0.16 s1.2 0.28 1.2 1.16 c0 2.88 0 5.72 0.08 8.56 c0 1.4 0.12 2.8 0.2 4.36 c2.96 -0.04 5.84 0.56 8.8 -0.04 c0 -0.32 0.04 -0.6 0.04 -0.88 l-0.12 -11.6 c0 -0.32 0 -0.64 0.08 -0.92 c0.08 -0.2 0.32 -0.4 0.48 -0.4 s0.4 0.2 0.48 0.4 s0.04 0.44 0.08 0.68 l0.12 15.28 c0 0.88 0.12 1.76 0.28 2.64 c0.12 0.6 0.2 1.28 0.48 1.88 c0.2 0.4 0.6 0.84 1.08 0.96 c0.64 0.2 1.24 0.56 1.8 0.92 c0.44 0.28 0.72 0.72 0.52 1.28 c-0.2 0.52 -0.64 0.84 -1.2 0.8 z M4.4 32.72 c1.12 -0.16 2.12 -0.28 3.16 -0.4 c-0.2 -6.36 -0.44 -12.64 -0.64 -19 l-1.84 0.12 c-0.28 0.04 -0.56 0.08 -0.92 0.12 z M21.4 36.6 c0.44 -0.04 0.44 -0.68 0.12 -0.88 c-0.4 -0.32 -0.92 -0.28 -1.4 -0.32 c-0.04 0 -0.4 -0.08 -0.44 0 s0.16 0.2 0.56 0.56 c0.12 0.16 0.24 0.36 0.4 0.48 c0.2 0.12 0.52 0.2 0.76 0.16 z M41.282 33.24 c-3.6 0.32 -6.36 -0.88 -8.32 -3.76 c-1.12 -1.64 -1.88 -3.36 -2.12 -5.24 c-0.2 -1.88 0.36 -3.64 1.2 -5.28 c1.04 -2.12 2.64 -3.8 4.6 -5.2 c2.44 -1.72 6.28 -1.88 8.92 0.08 c3.48 2.56 4.52 4.36 4.56 8.92 c-0.12 2.12 -0.76 4.68 -2.4 6.96 c-1.52 2.16 -3.68 3.28 -6.44 3.52 z M41.762 32.12 c1.96 -0.28 3.56 -1.08 4.72 -2.56 c1.72 -2.2 2.36 -4.68 2.56 -7.36 c-0.04 -0.56 -0.08 -1.16 -0.16 -1.72 c-0.4 -3.12 -3.32 -6.16 -6.48 -6.88 c-0.6 -0.16 -1.04 -0.04 -1.44 0.4 c-1.4 1.56 -2.72 3.2 -3.64 5.08 c-0.64 1.36 -0.96 2.8 -0.72 4.32 c0.08 0.48 0.16 0.96 0.28 1.44 c0.64 2.36 1.68 4.52 3.12 6.56 c0.44 0.64 0.96 0.88 1.76 0.72 z M39.162 32.2 c-0.16 -0.28 -0.28 -0.44 -0.36 -0.56 c-1.24 -1.84 -2.2 -3.84 -2.84 -5.92 c-0.68 -2.16 -0.92 -4.36 0.12 -6.48 c0.68 -1.36 1.56 -2.64 2.4 -3.96 c0.32 -0.52 0.76 -1 1.16 -1.52 c-0.04 -0.04 -0.04 -0.08 -0.08 -0.16 c-0.48 0.16 -1 0.24 -1.36 0.52 c-1.08 0.76 -2.2 1.52 -3.12 2.48 c-2 2.04 -3.24 4.48 -3.08 7.32 c0.12 2.68 1.48 4.88 3.48 6.76 c0.92 0.88 2.16 1.32 3.68 1.52 z M68.884 33.72 c-0.52 0 -1 0 -1.52 -0.04 c-0.88 -0.08 -1.24 -0.44 -1.28 -1.36 c-0.04 -1.48 -0.08 -2.92 -0.16 -4.4 l-0.56 -11.04 c-0.08 -0.88 -0.04 -1.76 -0.04 -2.72 c-1.04 -0.04 -2.04 -0.12 -3.08 -0.16 l-2.28 0 c-0.36 0 -0.76 -0.04 -0.76 -0.56 c0 -0.48 0.4 -0.56 0.8 -0.56 c1.88 0.04 3.76 0.08 5.64 0.08 c3.24 -0.04 6.48 -0.08 9.72 -0.16 c0.2 0 0.48 -0.04 0.6 0.08 c0.24 0.16 0.48 0.44 0.52 0.72 c0.04 0.4 -0.36 0.36 -0.64 0.36 l-5.52 0.12 c0.08 1.84 0.2 3.56 0.28 5.24 c0.12 4.08 0.24 8.12 0.32 12.16 c0.04 2.16 -0.32 2.2 -2.04 2.24 z M67.324 32.56 l2.52 0 c-0.04 -6.24 -0.2 -12.36 -0.64 -18.52 l-2.68 0 c-0.16 1.4 0.52 17.56 0.8 18.52 z M88.646 34 c-1.28 0.04 -1.76 -0.32 -1.8 -1.64 c-0.04 -3.28 0 -8.64 -0.04 -11.92 c-0.04 -2.36 -0.2 -4.24 -0.24 -6.6 c0 -0.96 0.2 -1.2 1.2 -1.24 c0.64 0 1.32 -0.04 1.92 0.12 c1.48 0.32 2.88 0.12 4.32 0 c1.68 -0.12 3.4 -0.16 5.08 -0.24 c0.32 0 0.64 0.04 0.92 0.16 c0.16 0.08 0.4 0.32 0.36 0.48 c0 0.2 -0.24 0.4 -0.44 0.48 c-0.28 0.04 -0.6 0 -0.92 0 l-7.36 0.4 c-0.04 0 -0.08 0.08 -0.16 0.12 c0.12 4.2 0.36 7.96 0.52 12.32 l3 -0.24 c0.56 -0.04 1.12 -0.12 1.72 -0.16 c0.4 -0.04 0.84 -0.08 0.92 0.44 c0.04 0.52 -0.4 0.6 -0.8 0.64 l-4.32 0.36 c-0.12 0 -0.24 0.04 -0.44 0.08 c0.04 0.96 0.04 3.96 0.08 4.96 l3.88 0 c1.04 0 2.08 0 3.12 0.04 c0.36 0 0.72 0.04 0.72 0.48 s-0.36 0.56 -0.72 0.56 l-1.24 0.04 c-3.12 0.12 -6.2 0.2 -9.28 0.36 z M87.96600000000001 32.84 l3.08 -0.4 c-0.08 -1.36 -0.08 -4.6 -0.12 -5.8 c-0.16 -3.6 -0.32 -6.72 -0.44 -10.36 c-0.04 -0.6 -0.08 -1.24 -0.16 -1.84 c-0.04 -0.24 -0.24 -0.56 -0.36 -0.6 c-0.72 -0.08 -1.44 -0.12 -2.32 -0.16 c0.08 3.88 0.2 11.24 0.32 19.16 z M113.84800000000001 33.92 c-2.56 -0.08 -2.72 -0.16 -2.84 -2.72 c-0.12 -3.68 -0.2 -7.32 -0.32 -11 c-0.04 -1.96 -0.2 -3.88 -0.24 -5.84 c-0.04 -1.08 0.12 -1.28 1.2 -1.32 c0.8 -0.04 1.64 -0.04 2.44 0 c0.92 0.08 1.16 0.36 1.16 1.28 l0.28 18.12 c0 0.08 0.04 0.16 0.04 0.2 c1.92 0 3.8 0 5.68 -0.04 c0.24 0 0.52 -0.16 0.64 -0.36 c0.36 -0.36 0.6 -0.8 0.88 -1.2 c0.2 -0.36 0.32 -0.72 0.52 -1.08 c0.52 -0.84 1.16 -1.12 1.84 -0.8 c0.64 0.28 0.92 1.08 0.68 1.92 c-0.2 0.8 -0.64 1.48 -1.4 1.84 c-0.84 0.4 -1.76 0.8 -2.64 0.84 c-2.64 0.16 -5.28 0.24 -7.92 0.16 z M112.608 32.68 c1.24 0.48 1.76 0.12 1.8 -1.12 l0.04 -0.48 c-0.12 -5.52 -0.2 -11 -0.28 -16.48 c0 -0.12 -0.08 -0.24 -0.12 -0.4 l-2.44 0 c0 0.76 -0.04 1.4 0 2.08 l0.44 14 c0.04 0.6 0.08 1.2 0.2 1.8 c0 0.24 0.2 0.52 0.36 0.6 z M123.56800000000001 31.96 c0.2 0.12 0.92 -0.32 1.04 -0.48 s0.16 -0.36 0.2 -0.6 c0 -0.16 0 -0.32 -0.04 -0.48 c-0.2 -0.44 -0.68 -0.2 -0.92 0.08 c-0.24 0.32 -0.32 0.76 -0.36 1.16 c-0.04 0.2 0 0.32 0.08 0.32 z M159.69200000000004 33.08 c-3.32 0.56 -7.72 -3 -7.36 -6.56 c0.04 -0.6 0.24 -1.24 0.52 -1.76 c0.32 -0.6 0.96 -0.88 1.64 -0.72 c0.64 0.12 1.04 0.6 1.12 1.2 c0.04 0.6 0 1.2 -0.08 1.8 c-0.12 0.68 -0.32 1.32 -0.44 2 c-0.16 0.76 0.12 1.36 0.76 1.84 c1.12 0.88 2.36 1.28 3.76 1.08 c0.96 -0.16 1 -0.12 1 -1.08 l-0.12 -4.2 l-0.04 -4.2 c0 -0.96 -0.04 -1.92 -0.04 -2.88 l-0.04 -3.52 l0 -1.76 c0 -0.36 -0.16 -0.96 0.12 -1.24 c0.24 -0.32 0.72 -0.32 1.04 -0.32 l2.56 0 c0.36 0.04 0.64 0.08 0.68 0.6 l0.48 11 c0.04 1.04 -0.12 2.16 -0.16 3.24 c-0.2 3.28 -2.72 5.04 -5.4 5.48 z M161.73200000000003 31.16 c1.4 -0.76 2.04 -1.88 2.16 -3.24 c0.12 -2.08 0.16 -4.16 0.12 -6.24 c0 -2.08 -0.16 -4.16 -0.28 -6.24 l-0.08 -1.48 l-2.28 0 z M153.81200000000004 28.560000000000002 l0.24 0 c0.12 -0.76 0.28 -1.48 0.44 -2.2 c0.08 -0.4 0.32 -1.2 -0.44 -1.12 c-0.56 0.08 -0.6 0.92 -0.64 1.36 c-0.04 0.2 0.12 1.96 0.4 1.96 z M193.77400000000003 35.24 c0.44 0.28 0.72 0.72 0.52 1.28 c-0.2 0.52 -0.64 0.84 -1.24 0.8 c-0.44 -0.08 -0.92 -0.2 -1.28 -0.44 c-1.12 -0.76 -1.92 -1.84 -2.32 -3.08 c-0.6 -1.76 -1.44 -4.96 -1.96 -6.72 c-0.08 -0.28 -0.16 -0.52 -0.2 -0.76 c-1.96 0.36 -3.76 0.72 -5.6 1 c-0.4 0.08 -0.56 0.28 -0.72 0.64 l-2.08 4.96 c-0.76 1.84 -0.88 1.92 -2.72 1.24 c-0.4 -0.16 -0.8 -0.28 -1.16 -0.48 c-0.72 -0.36 -0.84 -0.76 -0.52 -1.52 c1.24 -3.04 2.52 -6.04 3.76 -9.08 c1.28 -3.2 2.52 -6.4 3.76 -9.64 c0.36 -0.92 0.44 -1 1.4 -0.68 c0.8 0.24 1.56 0.52 2.28 0.88 c0.28 0.16 0.56 0.52 0.6 0.8 c0.28 3.68 1.04 7.24 1.88 10.8 c0.44 1.88 1 3.76 1.48 5.64 c0.28 0.96 1.24 3.12 2.28 3.44 c0.64 0.2 1.24 0.56 1.84 0.92 z M177.49400000000003 33.480000000000004 c2.32 -6.44 5.88 -12.28 7.56 -18.96 l-1.92 -0.76 c-2.56 6.36 -5.08 12.64 -7.6 18.96 z M181.85400000000004 26.240000000000002 c1.76 -0.32 3.44 -0.68 5.12 -1 l-1.52 -7.8 c-1.2 2.92 -2.36 5.8 -3.6 8.8 z M193.21400000000003 36.6 c0.44 -0.04 0.44 -0.68 0.12 -0.88 c-0.4 -0.32 -0.92 -0.28 -1.4 -0.32 c-0.08 0 -0.4 -0.08 -0.44 0 s0.16 0.2 0.52 0.56 c0.16 0.16 0.28 0.36 0.44 0.48 c0.2 0.12 0.52 0.2 0.76 0.16 z M223.25600000000003 13.36 c0.08 0.56 -0.28 1.24 -0.84 1.48 c-0.28 0.12 -0.6 0.2 -0.88 0.24 c-1.76 0.36 -3.16 1.16 -4 2.84 c-0.96 2.04 -2.04 5 -3.04 7.04 c-0.16 0.32 -0.2 0.72 -0.2 1.12 c0.04 2.88 0.16 2.8 0.2 5.72 c0 0.24 0 0.48 -0.04 0.68 c-0.12 0.68 -0.44 1.04 -1.08 1.04 c-0.92 0 -1.84 -0.04 -2.76 -0.12 c-1.16 -0.16 -1.16 -1.16 -1.2 -2.08 c-0.04 -1.08 -0.12 -2.12 -0.2 -3.16 c-0.08 -0.88 -0.2 -1.8 -0.8 -2.52 c-2.04 -2.64 -4 -6.32 -5.96 -9 c-0.4 -0.52 -0.72 -1.16 -0.96 -1.76 c-0.24 -0.56 -0.08 -0.84 0.48 -1.04 c1 -0.32 2.04 -0.64 3.04 -1 c0.6 -0.2 1 0 1.32 0.48 c0.36 0.56 0.68 1.12 1.08 1.68 c1.92 2.64 3.88 6.32 5.8 8.96 l0.32 0.32 c-0.04 -0.04 0.8 -2 0.84 -2.2 c0.76 -2 1.6 -4 2.8 -5.84 c0.76 -1.12 1.6 -2.24 2.72 -3.04 c0.88 -0.64 3 -1.48 3.36 0.16 z M222.21600000000004 13.760000000000002 l0 -0.08 l-0.12 -0.28 c-0.08 -0.08 -0.2 -0.08 -0.32 -0.12 c-0.12 0 -0.2 0 -0.32 0.04 l-0.16 0.12 c-0.2 0.12 -0.44 0.28 -0.6 0.48 c-0.36 0.4 0.24 0.24 0.48 0.24 c0.32 -0.08 0.68 -0.16 0.96 -0.32 l0.08 -0.04 l0 -0.04 z M213.29600000000002 32.44 c0.08 -0.24 0.12 -0.32 0.12 -0.44 c-0.04 -3 -0.2 -3 -0.28 -6 c0 -0.28 -0.2 -0.6 -0.36 -0.84 c-1.76 -2.36 -3.52 -5.72 -5.28 -8.12 c-0.72 -1 -1.4 -2.04 -2.16 -3.12 l-2.72 0.92 c0.28 0.48 0.52 0.92 0.8 1.32 c2.08 2.76 4.12 6.52 6.24 9.28 c0.52 0.68 0.8 1.36 0.76 2.24 c0 0.28 -0.04 0.4 -0.04 0.48 c0 0.04 0.04 0.16 0.04 0.6 c0 1.16 0.08 2.32 0.12 3.56 z M252.90000000000006 34.12 c-1.2 -0.04 -1.44 -0.24 -1.48 -1.4 l-0.52 -13.64 l-0.24 -4.52 c-0.04 -0.88 0.04 -1 0.88 -1.08 c1.04 -0.04 2.12 -0.08 3.2 -0.16 c0.72 -0.04 1.44 -0.16 2.16 -0.2 c1.88 -0.08 3.72 -0.04 5.48 0.72 c1.68 0.68 2.76 1.84 3.04 3.68 c0.52 3.32 -0.76 5.96 -3.72 7.56 l-1.4 0.68 c0.92 0.32 1.88 0.6 2.76 1 c0.96 0.48 1.6 1.32 1.8 2.44 c0.32 1.52 -0.24 2.88 -1.72 3.44 c-1.24 0.48 -2.6 0.72 -3.92 0.96 c-2.08 0.36 -4.2 0.6 -6.32 0.52 z M256.38000000000005 25.52 c2 -0.2 4.16 -0.88 5.52 -1.88 c2.32 -1.6 2.96 -3.88 2.32 -6.56 c-0.24 -0.76 -0.72 -1.4 -1.4 -1.8 c-2.24 -1.28 -4.64 -1.24 -7.12 -0.92 z M252.58000000000004 32.92 l3.12 0 l0 -0.48 c-0.16 -1.6 -0.36 -3.2 -0.44 -4.76 c-0.12 -2.64 -0.16 -5.24 -0.28 -7.88 c-0.08 -1.56 -0.24 -3.12 -0.4 -4.68 c0 -0.24 -0.24 -0.6 -0.4 -0.64 c-0.76 -0.04 -1.56 0 -2.4 0 z M256.82000000000005 32.84 l4.08 -0.6 c0.64 -0.12 1.24 -0.32 1.8 -0.56 c0.92 -0.4 1.2 -1.04 1.12 -2.04 c-0.16 -1.44 -1.2 -2.08 -2.44 -2.4 c-1.6 -0.44 -3.24 -0.24 -4.88 -0.04 c-0.04 0 -0.08 0.08 -0.24 0.2 z M294.02200000000005 37.32 c-0.44 -0.08 -0.96 -0.2 -1.32 -0.44 c-0.8 -0.56 -1.48 -1.36 -2 -2.2 c-0.48 -0.76 -0.6 -1.68 -0.68 -2.56 c-0.08 -1.16 -0.08 -2.28 -0.08 -3.44 l0 -1.16 l-8.68 0 c0 1 -0.04 2 0 3.04 c0 0.6 0.08 1.2 0.08 1.8 c0 0.72 -0.2 1 -0.92 1.08 c-1 0.16 -1.96 0.24 -2.96 0.32 s-1.44 -0.24 -1.56 -1.24 c-0.08 -0.84 -0.16 -1.68 -0.12 -2.48 c0.28 -4.4 0.04 -8.8 -0.12 -13.2 c-0.04 -1.08 -0.04 -2.16 -0.04 -3.2 c0.04 -0.88 0.32 -1.16 1.2 -1.24 c0.92 -0.04 1.88 -0.12 2.8 -0.16 s1.2 0.28 1.2 1.16 c0 2.88 0 5.72 0.08 8.56 c0 1.4 0.12 2.8 0.2 4.36 c2.96 -0.04 5.84 0.56 8.8 -0.04 c0 -0.32 0.04 -0.6 0.04 -0.88 l-0.12 -11.6 c0 -0.32 0 -0.64 0.08 -0.92 c0.08 -0.2 0.32 -0.4 0.48 -0.4 s0.4 0.2 0.48 0.4 s0.04 0.44 0.08 0.68 l0.12 15.28 c0 0.88 0.12 1.76 0.28 2.64 c0.12 0.6 0.2 1.28 0.48 1.88 c0.2 0.4 0.6 0.84 1.08 0.96 c0.64 0.2 1.24 0.56 1.8 0.92 c0.44 0.28 0.72 0.72 0.52 1.28 c-0.2 0.52 -0.64 0.84 -1.2 0.8 z M277.02200000000005 32.72 c1.12 -0.16 2.12 -0.28 3.16 -0.4 c-0.2 -6.36 -0.44 -12.64 -0.64 -19 l-1.84 0.12 c-0.28 0.04 -0.56 0.08 -0.92 0.12 z M294.02200000000005 36.6 c0.44 -0.04 0.44 -0.68 0.12 -0.88 c-0.4 -0.32 -0.92 -0.28 -1.4 -0.32 c-0.04 0 -0.4 -0.08 -0.44 0 s0.16 0.2 0.56 0.56 c0.12 0.16 0.24 0.36 0.4 0.48 c0.2 0.12 0.52 0.2 0.76 0.16 z M322.8640000000001 35.24 c0.44 0.28 0.72 0.72 0.52 1.28 c-0.2 0.52 -0.64 0.84 -1.24 0.8 c-0.44 -0.08 -0.92 -0.2 -1.28 -0.44 c-1.12 -0.76 -1.92 -1.84 -2.32 -3.08 c-0.6 -1.76 -1.44 -4.96 -1.96 -6.72 c-0.08 -0.28 -0.16 -0.52 -0.2 -0.76 c-1.96 0.36 -3.76 0.72 -5.6 1 c-0.4 0.08 -0.56 0.28 -0.72 0.64 l-2.08 4.96 c-0.76 1.84 -0.88 1.92 -2.72 1.24 c-0.4 -0.16 -0.8 -0.28 -1.16 -0.48 c-0.72 -0.36 -0.84 -0.76 -0.52 -1.52 c1.24 -3.04 2.52 -6.04 3.76 -9.08 c1.28 -3.2 2.52 -6.4 3.76 -9.64 c0.36 -0.92 0.44 -1 1.4 -0.68 c0.8 0.24 1.56 0.52 2.28 0.88 c0.28 0.16 0.56 0.52 0.6 0.8 c0.28 3.68 1.04 7.24 1.88 10.8 c0.44 1.88 1 3.76 1.48 5.64 c0.28 0.96 1.24 3.12 2.28 3.44 c0.64 0.2 1.24 0.56 1.84 0.92 z M306.5840000000001 33.480000000000004 c2.32 -6.44 5.88 -12.28 7.56 -18.96 l-1.92 -0.76 c-2.56 6.36 -5.08 12.64 -7.6 18.96 z M310.9440000000001 26.240000000000002 c1.76 -0.32 3.44 -0.68 5.12 -1 l-1.52 -7.8 c-1.2 2.92 -2.36 5.8 -3.6 8.8 z M322.3040000000001 36.6 c0.44 -0.04 0.44 -0.68 0.12 -0.88 c-0.4 -0.32 -0.92 -0.28 -1.4 -0.32 c-0.08 0 -0.4 -0.08 -0.44 0 s0.16 0.2 0.52 0.56 c0.16 0.16 0.28 0.36 0.44 0.48 c0.2 0.12 0.52 0.2 0.76 0.16 z M339.5460000000001 33.64 c-0.92 0.04 -1.6 -0.32 -1.96 -1.24 c-0.96 -2.4 -1.96 -4.76 -2.92 -7.16 c-1.28 -3.28 -2.52 -6.56 -3.76 -9.84 c-0.16 -0.44 -0.32 -0.92 -0.4 -1.4 c-0.12 -0.76 0.16 -1.12 0.92 -1.16 c1.04 -0.04 2.08 -0.04 3.12 -0.04 c0.52 0 0.8 0.32 0.92 0.8 c0.2 0.92 0.36 1.84 0.68 2.72 c0.72 2.12 1.52 4.24 2.32 6.32 c1.04 2.68 2.12 5.28 3.2 7.96 l0.36 0.8 c0.28 -0.84 0.48 -1.56 0.76 -2.24 c1.68 -4.52 3.4 -9 5.12 -13.52 c0.4 -1.04 1.04 -2 2.04 -2.56 c0.36 -0.2 0.72 -0.36 1.08 -0.44 c0.96 -0.2 1.68 0.36 1.72 1.36 c0 0.92 -0.36 1.6 -1.24 2 c-0.16 0.12 -0.36 0.2 -0.56 0.24 c-1.8 0.48 -2.8 1.72 -3.4 3.36 c-1.32 3.44 -2.6 6.88 -3.88 10.36 c-0.32 0.92 -0.56 1.92 -0.8 2.88 c-0.12 0.56 -0.36 0.76 -0.96 0.76 c-0.8 -0.04 -1.56 0 -2.36 0.04 z M349.06600000000014 15.8 c0.76 -0.32 1.36 -0.52 1.96 -0.8 c0.56 -0.24 0.68 -0.6 0.4 -1.36 c-1.12 0.28 -1.84 1 -2.36 2.16 z M341.14600000000013 32.4 c-0.04 -0.12 -0.04 -0.24 -0.08 -0.32 c-1 -2.56 -1.96 -5.16 -3.04 -7.68 c-1.4 -3.32 -2.84 -6.6 -3.56 -10.16 c-0.04 -0.12 -0.08 -0.24 -0.12 -0.28 l-2.76 0 c0.8 2.04 1.52 4 2.28 5.96 c1.4 3.64 2.72 7.28 4.2 10.88 c0.8 1.88 0.32 1.92 3.08 1.6 z M379.1880000000001 35.24 c0.44 0.28 0.72 0.72 0.52 1.28 c-0.2 0.52 -0.64 0.84 -1.24 0.8 c-0.44 -0.08 -0.92 -0.2 -1.28 -0.44 c-1.12 -0.76 -1.92 -1.84 -2.32 -3.08 c-0.6 -1.76 -1.44 -4.96 -1.96 -6.72 c-0.08 -0.28 -0.16 -0.52 -0.2 -0.76 c-1.96 0.36 -3.76 0.72 -5.6 1 c-0.4 0.08 -0.56 0.28 -0.72 0.64 l-2.08 4.96 c-0.76 1.84 -0.88 1.92 -2.72 1.24 c-0.4 -0.16 -0.8 -0.28 -1.16 -0.48 c-0.72 -0.36 -0.84 -0.76 -0.52 -1.52 c1.24 -3.04 2.52 -6.04 3.76 -9.08 c1.28 -3.2 2.52 -6.4 3.76 -9.64 c0.36 -0.92 0.44 -1 1.4 -0.68 c0.8 0.24 1.56 0.52 2.28 0.88 c0.28 0.16 0.56 0.52 0.6 0.8 c0.28 3.68 1.04 7.24 1.88 10.8 c0.44 1.88 1 3.76 1.48 5.64 c0.28 0.96 1.24 3.12 2.28 3.44 c0.64 0.2 1.24 0.56 1.84 0.92 z M362.90800000000013 33.480000000000004 c2.32 -6.44 5.88 -12.28 7.56 -18.96 l-1.92 -0.76 c-2.56 6.36 -5.08 12.64 -7.6 18.96 z M367.2680000000001 26.240000000000002 c1.76 -0.32 3.44 -0.68 5.12 -1 l-1.52 -7.8 c-1.2 2.92 -2.36 5.8 -3.6 8.8 z M378.6280000000001 36.6 c0.44 -0.04 0.44 -0.68 0.12 -0.88 c-0.4 -0.32 -0.92 -0.28 -1.4 -0.32 c-0.08 0 -0.4 -0.08 -0.44 0 s0.16 0.2 0.52 0.56 c0.16 0.16 0.28 0.36 0.44 0.48 c0.2 0.12 0.52 0.2 0.76 0.16 z M390.75000000000006 33.64 c-2.24 0.16 -2.52 -0.12 -2.6 -2.32 c-0.12 -3.32 -0.28 -6.64 -0.36 -9.96 c-0.04 -2.48 0 -4.96 0.04 -7.44 c0 -1 0.28 -1.2 1.28 -1.16 c0.84 0.04 1.72 0.12 2.6 0.08 c0.72 0 1.16 0.36 1.48 0.96 c1.36 2.24 2.68 4.52 4.08 6.76 c2 3.16 4.08 6.24 6.12 9.36 c0.04 0.08 0.04 0.16 0.04 0.2 l0.24 -0.08 c-0.08 -1.48 -0.16 -3 -0.2 -4.48 c-0.12 -2.96 -0.32 -5.92 -0.36 -8.84 c0 -1 0.24 -1.96 0.48 -2.92 c0.2 -0.72 0.72 -1.32 1.48 -1.68 c0.84 -0.4 1.68 -0.16 2.12 0.56 c0.56 0.88 0.44 1.88 -0.36 2.4 c-0.36 0.24 -0.72 0.36 -1.08 0.56 c-1 0.52 -1.6 1.28 -1.52 2.48 c0.2 4.4 0.36 8.8 0.52 13.2 c0.04 0.28 0.04 0.6 -0.04 0.88 c-0.04 0.2 -0.2 0.44 -0.4 0.48 s-0.48 -0.04 -0.68 -0.16 c-0.16 -0.08 -0.2 -0.24 -0.28 -0.4 l-6 -9.44 c-1.24 -1.96 -2.48 -3.96 -3.72 -5.96 l-0.52 -0.8 c0 0.36 -0.04 0.56 0 0.76 c0.04 4.76 0.12 9.52 0.16 14.32 c0.04 2.32 -0.2 2.52 -2.52 2.64 z M404.5100000000001 15.04 l1.44 -0.72 c0.48 -0.24 0.56 -0.64 0.28 -1 c-0.32 -0.48 -0.76 -0.28 -1 0.04 c-0.36 0.44 -0.6 1 -0.92 1.52 z M391.07000000000005 32.519999999999996 c1.04 -0.08 1.08 -0.12 1.04 -1.12 l-0.2 -16.28 c0 -0.36 -0.08 -0.76 -0.12 -1.16 l-2.8 0 c0 0.24 -0.08 0.48 -0.08 0.68 c0.12 5.48 0.2 10.92 0.32 16.36 c0.04 1.68 0.12 1.68 1.84 1.52 z M417.7120000000001 33.6 c-0.4 0.04 -0.92 0.04 -1.28 -0.16 c-0.24 -0.12 -0.28 -0.56 -0.08 -0.76 c0.12 -0.12 0.28 -0.12 0.4 -0.12 c0.64 -0.04 1.24 -0.08 1.84 -0.08 c0.36 0.04 0.52 -0.12 0.52 -0.52 c-0.08 -3.76 -0.08 -6.6 -0.12 -10.4 c-0.04 -2.36 -0.04 -4.72 0 -7.12 c0 -0.64 -0.24 -0.88 -0.88 -0.88 c-0.56 0.04 -1.08 0 -1.64 -0.04 c-0.4 0 -0.8 -0.04 -0.8 -0.56 s0.44 -0.52 0.8 -0.52 c1.28 0 2.56 0.12 3.8 0.08 c1.84 -0.08 3.72 -0.24 5.56 -0.32 c0.44 -0.04 1.08 -0.12 1.08 0.56 c0 0.6 -0.6 0.52 -1.04 0.56 l-1.8 0.12 c0 6.56 -0.04 12.12 -0.04 18.68 l1.64 -0.12 c0.36 0 1.08 -0.24 1.32 0.16 c0.12 0.2 0.12 0.44 0.08 0.64 c-0.12 0.52 -1 0.28 -1.4 0.32 l-2.68 0.16 c-1.76 0.12 -3.52 0.2 -5.28 0.32 z M420.2720000000001 31.96 l2.64 0 c-0.16 -6.48 0.28 -11.88 -0.12 -18.28 l-2.68 0 l0 2 c0 5.44 0 9.96 0.04 15.4 c0 0.32 0.08 0.64 0.12 0.88 z"></path></g></svg>